<?xml version="1.0" encoding="UTF-8"?>
<svg width="236px" height="192px" viewBox="0 0 236 192" version="1.1" xmlns="http://www.w3.org/2000/svg" xmlns:xlink="http://www.w3.org/1999/xlink">
    <title>twitter-logo</title>
    <g id="Page-1" stroke="none" stroke-width="1" fill="none" fill-rule="evenodd">
        <g id="Twitter_Social_Icon_Circle_Color" transform="translate(-89.000000, -114.000000)" fill="#FFFFFF" fill-rule="nonzero">
            <g id="twitter-logo" transform="translate(89.000000, 114.000000)">
                <path d="M74.4,191.5 C163.1,191.5 211.6,118 211.6,54.3 C211.6,52.2 211.6,50.1 211.5,48.1 C220.9,41.3 229.1,32.8 235.6,23.1 C227,26.9 217.7,29.5 207.9,30.7 C217.9,24.7 225.5,15.3 229.1,4 C219.8,9.5 209.5,13.5 198.5,15.7 C189.7,6.3 177.2,0.5 163.3,0.5 C136.7,0.5 115.1,22.1 115.1,48.7 C115.1,52.5 115.5,56.2 116.4,59.7 C76.3,57.7 40.8,38.5 17,9.3 C12.9,16.4 10.5,24.7 10.5,33.5 C10.5,50.2 19,65 32,73.6 C24.1,73.4 16.7,71.2 10.2,67.6 C10.2,67.8 10.2,68 10.2,68.2 C10.2,91.6 26.8,111 48.9,115.5 C44.9,116.6 40.6,117.2 36.2,117.2 C33.1,117.2 30.1,116.9 27.1,116.3 C33.2,135.5 51,149.4 72.1,149.8 C55.6,162.7 34.8,170.4 12.2,170.4 C8.3,170.4 4.5,170.2 0.7,169.7 C21.8,183.5 47.2,191.5 74.4,191.5" id="Path"></path>
            </g>
        </g>
    </g>
</svg>